# xmcd
#
# Track frame offsets:
# 150
# 18966
# 35921
# 50768
# 68449
# 80689
# 97074
# 109912
# 122493
# 132716
# 143512
# 158189
# 170807
# 182020
# 191761
# 206379
# 219258
# 238082
# 248699
# 259370
#
# Disc length: 3670 seconds
#
# Revision: 0
# Processed by: cddbd v1.5.1PL0 Copyright (c) Steve Scherf et al.
# Submitted via: Audion 3.0.2 (http://www.panic.com/audion/)
#
DISCID=290e5414
DTITLE=red tent - disc 9
DYEAR=1900
DGENRE=
TTITLE0=chapter
TTITLE1=chapter
TTITLE2=chapter
TTITLE3=chapter
TTITLE4=chapter
TTITLE5=chapter
TTITLE6=chapter
TTITLE7=chapter
TTITLE8=chapter
TTITLE9=chapter
TTITLE10=chapter
TTITLE11=chapter
TTITLE12=chapter
TTITLE13=chapter
TTITLE14=chapter
TTITLE15=chapter
TTITLE16=chapter
TTITLE17=chapter
TTITLE18=chapter
TTITLE19=chapter
EXTD=
EXTT0=
EXTT1=
EXTT2=
EXTT3=
EXTT4=
EXTT5=
EXTT6=
EXTT7=
EXTT8=
EXTT9=
EXTT10=
EXTT11=
EXTT12=
EXTT13=
EXTT14=
EXTT15=
EXTT16=
EXTT17=
EXTT18=
EXTT19=
PLAYORDER=
